<svg width="0" height="0" class="hidden">
  <symbol fill="none" xmlns="http://www.w3.org/2000/svg" viewBox="0 0 225 50" id="logo">
    <g clip-path="url(#clip0_13_2)" stroke="none">
      <path fill-rule="evenodd" clip-rule="evenodd" d="M37.1331 0.0442893C35.8778 0.0868733 35.3649 0.146146 34.7743 0.314755C34.3587 0.433876 33.7042 0.571986 33.3186 0.622626C32.9336 0.673267 32.5135 0.784331 32.3849 0.870074C32.2564 0.955242 31.8805 1.08299 31.5487 1.15378C31.2169 1.22398 30.8381 1.36785 30.7062 1.47316C30.5748 1.57847 30.2759 1.69356 30.042 1.72924C29.8076 1.76491 29.5449 1.87195 29.4577 1.96748C29.3699 2.063 29.097 2.22873 28.8513 2.33577C28.6056 2.44281 28.4046 2.57171 28.4046 2.62235C28.4046 2.67299 28.2562 2.76391 28.075 2.82491C27.8933 2.88533 27.7132 2.99237 27.6736 3.062C27.6345 3.13163 27.4381 3.28643 27.2376 3.4067C26.9132 3.60006 26.1522 4.26356 25.7621 4.69228C25.684 4.77802 25.5039 4.96332 25.3612 5.10488C25.2186 5.24587 25.1013 5.39146 25.1013 5.42829C25.1013 5.46512 24.9847 5.62222 24.842 5.77702C24.5017 6.14647 24.2141 6.5959 23.9287 7.20301C23.8014 7.47463 23.6496 7.71287 23.5919 7.73243C23.5341 7.752 23.4452 7.96089 23.3943 8.1974C23.3439 8.43392 23.2159 8.74755 23.1112 8.89486C23.0064 9.0416 22.875 9.43004 22.819 9.75805C22.7635 10.0855 22.6276 10.5263 22.5178 10.7375C22.2007 11.3452 22.2092 16.9565 22.5274 17.5624C22.6429 17.7817 22.7669 18.1477 22.8026 18.3761C22.8388 18.6046 22.9883 18.9602 23.1355 19.1668C23.2827 19.3734 23.4027 19.6381 23.4027 19.7555C23.4027 19.8729 23.4639 20.0208 23.5386 20.0835C23.6134 20.1468 23.8574 20.461 24.0811 20.7816C24.7141 21.6885 25.6749 22.6069 26.2887 22.8912C26.4127 22.9487 26.5797 23.0966 26.6595 23.2204C26.7394 23.3441 26.882 23.4454 26.9766 23.4454C27.0717 23.4454 27.3361 23.5743 27.5643 23.7314C27.7931 23.889 28.0337 24.0185 28.0999 24.0191C28.1656 24.0203 28.3779 24.1267 28.5716 24.2562C28.7652 24.3851 29.1078 24.533 29.3337 24.5836C29.559 24.6343 29.8348 24.7603 29.9469 24.8639C30.0584 24.9669 30.3359 25.0751 30.5629 25.1038C30.7894 25.1332 31.1772 25.2632 31.4241 25.3933C31.671 25.5239 32.09 25.6603 32.3544 25.6977C32.6194 25.7345 32.9359 25.8445 33.0576 25.9417C33.1827 26.0418 33.6385 26.1828 34.1102 26.2663C34.5671 26.3474 35.0416 26.4809 35.1644 26.5626C35.2873 26.6443 35.6955 26.752 36.072 26.802C36.8392 26.9039 37.2044 27 37.6104 27.2089C37.7633 27.2871 38.1738 27.3769 38.5231 27.4086C38.8912 27.4419 39.3673 27.5651 39.6555 27.7009C39.929 27.8304 40.386 27.9662 40.672 28.0024C40.957 28.0393 41.319 28.148 41.475 28.2447C41.632 28.3414 41.992 28.449 42.278 28.4841C42.562 28.5192 43.002 28.655 43.255 28.7851C43.507 28.9157 43.949 29.0607 44.236 29.1085C44.536 29.158 44.828 29.2719 44.924 29.3755C45.015 29.475 45.274 29.5861 45.499 29.6224C45.725 29.6586 46.058 29.7898 46.24 29.9135C46.421 30.0373 46.729 30.1898 46.924 30.2525C47.119 30.3146 47.278 30.405 47.278 30.4533C47.278 30.5011 47.416 30.5989 47.585 30.6708C48.024 30.8579 49.92 32.6228 49.92 32.8444C49.92 32.8829 50.042 33.0699 50.191 33.2604C50.339 33.4509 50.489 33.7841 50.523 34.0016C50.558 34.2191 50.678 34.5765 50.791 34.7957C51.137 35.4702 51.122 38.0511 50.767 38.5512C50.695 38.653 50.539 39.1537 50.45 39.5646C50.421 39.6998 50.311 39.9116 50.206 40.0347C50.1 40.1585 50.014 40.3063 50.013 40.3645C50.012 40.422 49.88 40.6205 49.719 40.8053C49.559 40.99 49.379 41.2075 49.32 41.2892C49.261 41.3704 49.043 41.5649 48.835 41.7208C48.627 41.8768 48.404 42.0552 48.339 42.1179C48.274 42.18 48.125 42.2618 48.009 42.2992C47.892 42.3366 47.744 42.4442 47.679 42.538C47.613 42.6318 47.401 42.7618 47.206 42.8274C47.012 42.8925 46.747 43.0214 46.617 43.1134C46.487 43.2061 46.178 43.3102 45.93 43.3448C45.681 43.3793 45.278 43.5111 45.033 43.6377C44.649 43.8368 44.368 43.8828 42.984 43.9726C42.102 44.0301 41.252 44.1228 41.097 44.1786C40.593 44.3599 38.5752 44.3967 38.2089 44.2316C38.0107 44.1424 37.2763 44.044 36.2838 43.9726C34.9147 43.8753 34.6243 43.8264 34.3021 43.6394C34.0864 43.5145 33.6702 43.3925 33.3299 43.3546C32.9919 43.3166 32.5486 43.1871 32.3017 43.0536C32.0633 42.9247 31.7746 42.8194 31.6602 42.8194C31.3833 42.8194 30.8466 42.6318 30.6626 42.4706C30.581 42.3999 30.286 42.2974 30.0069 42.2433C29.7278 42.1898 29.4124 42.0638 29.3059 41.9637C29.1995 41.8635 28.9209 41.7306 28.6877 41.6685C28.4538 41.6063 28.1781 41.478 28.0739 41.3842C27.9703 41.2898 27.7296 41.1621 27.5388 41.0999C27.3486 41.0378 27.1368 40.9186 27.0683 40.8352C27.0004 40.7517 26.7739 40.6021 26.5655 40.5031C26.1205 40.2914 25.6064 39.9421 25.3273 39.6618C25.218 39.5525 25.0866 39.4627 25.0345 39.4627C24.983 39.4627 24.8324 39.3609 24.701 39.2371C24.5691 39.1128 24.3081 38.9155 24.1213 38.7975C23.9338 38.6801 23.7804 38.5449 23.7804 38.4965C23.7804 38.4488 23.6049 38.2974 23.3903 38.1599C23.0002 37.9096 22.8428 37.9441 22.8382 38.2801C22.8371 38.3423 22.7295 38.5224 22.5982 38.6807C22.4674 38.8389 22.3117 39.1123 22.2528 39.2878C22.1939 39.4627 22.0467 39.7286 21.925 39.8776C21.8038 40.0267 21.703 40.2206 21.7019 40.3092C21.7002 40.3973 21.5728 40.639 21.4188 40.8461C21.2642 41.0533 21.1374 41.2691 21.1362 41.3261C21.1357 41.3825 21.0083 41.6184 20.8531 41.8509C20.4398 42.4712 20.467 42.8458 20.9494 43.1549C21.1572 43.2884 21.3271 43.4368 21.3271 43.4858C21.3271 43.5341 21.4222 43.6037 21.5394 43.6411C21.656 43.678 21.9108 43.8535 22.1056 44.0307C22.3004 44.2085 22.5212 44.3541 22.5965 44.3541C22.6718 44.3541 22.7669 44.4128 22.8082 44.4853C22.8501 44.5578 23.0749 44.7149 23.3082 44.8352C23.5415 44.9549 23.7753 45.1063 23.8274 45.1707C23.8795 45.2357 24.0601 45.3347 24.2283 45.3917C24.397 45.4481 24.6767 45.6046 24.8505 45.7398C25.0243 45.8745 25.2435 45.9844 25.3375 45.9844C25.4314 45.9844 25.6528 46.0966 25.8295 46.2336C26.0067 46.3705 26.2909 46.5219 26.4619 46.5696C26.6329 46.618 26.8679 46.7411 26.9845 46.8436C27.1012 46.9466 27.3888 47.0599 27.6243 47.0956C27.8593 47.1319 28.1288 47.2389 28.2228 47.3344C28.3168 47.43 28.5557 47.5358 28.7528 47.5692C29.1921 47.6435 29.8478 47.8892 29.9186 48.0054C29.9469 48.0526 30.2996 48.1372 30.7016 48.1942C31.1036 48.2511 31.5685 48.3772 31.7349 48.4744C31.9224 48.5838 32.415 48.6937 33.0281 48.7633C33.5734 48.8249 34.1424 48.9371 34.293 49.0125C34.4436 49.0879 34.699 49.1494 34.8598 49.1494C35.0212 49.1494 35.3014 49.1937 35.4826 49.2478C35.9526 49.3882 43.677 49.3842 44.352 49.2432C44.638 49.1834 45.041 49.0746 45.249 49.001C45.456 48.9273 45.961 48.8226 46.37 48.7679C46.778 48.7132 47.267 48.5838 47.455 48.4807C47.643 48.3772 48.047 48.2488 48.352 48.1947C48.657 48.1407 48.954 48.0342 49.013 47.9582C49.07 47.8817 49.373 47.7476 49.684 47.6596C49.995 47.5721 50.296 47.4409 50.353 47.369C50.409 47.297 50.643 47.156 50.873 47.0559C51.103 46.9558 51.349 46.8033 51.419 46.717C51.49 46.6306 51.602 46.5599 51.669 46.5599C51.735 46.5599 51.968 46.4085 52.185 46.2244C52.402 46.0396 52.618 45.8883 52.665 45.8883C52.712 45.8883 52.863 45.7588 53.002 45.6006C53.141 45.4423 53.311 45.3128 53.38 45.3128C53.449 45.3128 53.506 45.2674 53.506 45.2116C53.506 45.1563 53.761 44.8565 54.072 44.5458C54.384 44.235 54.639 43.9461 54.639 43.9035C54.64 43.861 54.788 43.6371 54.97 43.4052C55.151 43.1739 55.299 42.9494 55.299 42.9068C55.299 42.8643 55.406 42.7118 55.537 42.5679C55.668 42.4246 55.801 42.1956 55.831 42.0598C55.862 41.9234 55.984 41.6397 56.101 41.4285C56.218 41.2179 56.344 40.8939 56.382 40.7092C56.418 40.5244 56.546 40.1579 56.665 39.8943C57.197 38.7146 57.229 33.0751 56.709 32.2142C56.611 32.0519 56.485 31.7009 56.429 31.4339C56.372 31.1669 56.222 30.8061 56.096 30.6311C55.969 30.4568 55.865 30.2415 55.865 30.1541C55.865 30.066 55.738 29.8307 55.582 29.6316C55.426 29.4324 55.299 29.2368 55.299 29.1971C55.299 29.0808 54.84 28.5578 54.025 27.7423C52.905 26.6225 52.825 26.554 52.491 26.4216C52.323 26.3543 52.185 26.2628 52.185 26.2174C52.185 26.1719 52.004 26.0413 51.784 25.9273C51.564 25.8128 51.341 25.6638 51.289 25.5964C51.237 25.5285 51.019 25.4267 50.804 25.3697C50.589 25.3133 50.363 25.2045 50.301 25.1286C50.239 25.0526 49.969 24.9162 49.7 24.8259C49.432 24.7355 49.026 24.5606 48.797 24.4369C48.569 24.3137 48.277 24.213 48.148 24.213C48.019 24.213 47.664 24.0835 47.358 23.9253C47.051 23.767 46.655 23.6376 46.479 23.6376C46.13 23.6376 45.662 23.4862 45.577 23.3458C45.547 23.2975 45.2 23.195 44.805 23.1185C44.409 23.0414 43.923 22.8946 43.724 22.7916C43.524 22.6892 43.054 22.5741 42.679 22.5361C42.303 22.4982 41.836 22.3836 41.641 22.2812C41.445 22.1788 40.868 22.0343 40.358 21.9607C39.8469 21.887 39.3254 21.757 39.1975 21.6724C39.0701 21.5872 38.6035 21.4761 38.1608 21.4249C37.6625 21.3674 37.188 21.2465 36.9145 21.1073C36.6716 20.9841 36.2255 20.8581 35.9226 20.8276C35.6202 20.7971 35.2612 20.6981 35.1254 20.6078C34.9895 20.5168 34.5818 20.3856 34.2206 20.3154C33.8395 20.2418 33.48 20.1088 33.3656 19.9995C33.2569 19.8954 32.984 19.7808 32.7592 19.744C32.5344 19.7078 32.2372 19.5823 32.0996 19.4661C31.9614 19.3498 31.7389 19.2272 31.6047 19.1944C31.3788 19.1386 30.9604 18.8543 30.3863 18.3669C30.2566 18.2564 30.0545 18.1005 29.9378 18.0194C29.8212 17.9382 29.7255 17.8128 29.7255 17.7397C29.7255 17.6672 29.6406 17.5809 29.537 17.5469C29.4333 17.5135 29.3224 17.3806 29.2901 17.2505C29.2584 17.1211 29.1485 16.9553 29.0461 16.8828C28.8604 16.7505 28.605 16.1606 28.5971 15.8447C28.5948 15.7526 28.554 15.6767 28.5059 15.6767C28.0881 15.6767 28.0201 11.3659 28.4312 10.9044C28.5155 10.81 28.6124 10.5395 28.6469 10.3036C28.6837 10.0521 28.8218 9.72755 28.9815 9.52039C29.131 9.32531 29.2539 9.09455 29.2539 9.0065C29.2539 8.68885 31.53 6.5654 31.8703 6.5654C31.9433 6.5654 32.1437 6.45606 32.3159 6.32256C32.5044 6.17639 32.8583 6.03943 33.2059 5.97671C33.5236 5.92031 33.7835 5.83917 33.7835 5.79716C33.7835 5.64466 34.3865 5.51404 35.6055 5.40297C36.3155 5.33852 36.9304 5.23379 37.0363 5.16013C37.2848 4.98749 40.677 4.97425 40.985 5.14517C41.098 5.20789 41.823 5.33564 42.595 5.42944C43.483 5.53705 44.056 5.65099 44.152 5.73904C44.237 5.81558 44.643 5.92606 45.056 5.98361C45.59 6.059 45.868 6.14819 46.02 6.29321C46.144 6.41118 46.44 6.5303 46.722 6.57576C46.991 6.61892 47.3 6.73804 47.41 6.84105C47.519 6.94348 47.782 7.07468 47.994 7.13165C48.206 7.1892 48.453 7.3181 48.543 7.41823C48.631 7.51836 48.887 7.64727 49.11 7.70424C49.334 7.76178 49.572 7.8763 49.64 7.95974C49.708 8.04318 49.899 8.16863 50.064 8.23884C50.229 8.30904 50.466 8.45924 50.591 8.57318C51.083 9.02492 52.213 9.92206 52.288 9.92206C52.333 9.92206 52.44 9.78222 52.527 9.61073C52.614 9.43925 52.736 9.25568 52.798 9.20273C52.86 9.15037 52.965 8.95586 53.033 8.77114C53.099 8.58642 53.227 8.36889 53.316 8.28775C53.406 8.20661 53.53 7.98161 53.593 7.78825C53.655 7.59547 53.809 7.33824 53.935 7.21682C54.06 7.09597 54.164 6.9032 54.165 6.78868C54.166 6.67416 54.278 6.44628 54.413 6.28227C54.785 5.83284 54.869 5.32759 54.609 5.11179C54.495 5.01741 54.339 4.88045 54.261 4.80622C54.183 4.73256 53.982 4.60078 53.813 4.51331C53.644 4.42584 53.506 4.31478 53.506 4.26586C53.506 4.21637 53.319 4.09265 53.091 3.99022C52.863 3.88721 52.586 3.71285 52.477 3.60178C52.368 3.49129 52.21 3.40037 52.127 3.40037C52.042 3.40037 51.829 3.27089 51.652 3.11264C51.474 2.95439 51.243 2.82491 51.137 2.82491C51.032 2.82491 50.81 2.72421 50.645 2.60106C50.48 2.47791 50.143 2.30124 49.896 2.20917C49.65 2.1171 49.448 2.00661 49.448 1.96345C49.448 1.92029 49.236 1.83339 48.977 1.77009C48.719 1.70679 48.408 1.57616 48.287 1.47949C48.166 1.38281 47.739 1.24067 47.338 1.16413C46.936 1.08702 46.531 0.952941 46.436 0.866046C46.334 0.772246 45.983 0.674993 45.568 0.625504C45.185 0.580042 44.425 0.433876 43.881 0.300944C42.768 0.0293274 40.307 -0.0644727 37.1331 0.0442893ZM0 24.5836V48.9578H2.6232C4.5381 48.9578 5.9174 49.0418 6 48.9578C6.1506 48.8042 6 14 6 14H0V24.5836ZM72.474 0.304397C72.395 0.334896 72.301 0.407405 72.263 0.465526C72.135 0.659456 72.176 48.6166 72.304 48.7466C72.523 48.9699 77.823 48.9043 77.943 48.677C78.054 48.4669 78.067 0.928196 77.957 0.523072L77.891 0.283105L75.253 0.265841C73.802 0.256634 72.551 0.273898 72.474 0.304397ZM105.189 0.504082L104.936 0.773397L104.934 10.9343C104.933 17.17 104.898 21.1516 104.843 21.2396C104.765 21.3657 103.455 21.3892 94.299 21.4313L83.845 21.4796L83.82 23.9408C83.798 26.0838 83.814 26.4216 83.944 26.554C84.08 26.6915 85.108 26.7065 94.367 26.7065C103.58 26.7065 104.655 26.722 104.787 26.8573C104.92 26.9925 104.936 28.1152 104.936 37.7801V48.5521L105.168 48.7069C105.515 48.9382 110.548 48.9411 110.635 48.7098C110.735 48.4445 110.701 0.750379 110.6 0.481639L110.508 0.235342H107.975H105.443L105.189 0.504082ZM190.67 0.544939C190.639 0.717577 190.627 5.04504 190.641 10.162L190.668 19.4655L193.493 19.4908C195.69 19.5104 196.334 19.4891 196.393 19.3947C196.435 19.3279 196.469 16.1998 196.47 12.4431C196.471 5.68265 196.473 5.61186 196.663 5.50886C196.979 5.33737 212.012 5.42196 212.349 5.59748C212.491 5.67229 212.608 5.76896 212.608 5.81212C212.608 5.85586 212.779 5.91973 212.989 5.95369C213.198 5.98764 213.522 6.13899 213.709 6.29033C213.896 6.44168 214.1 6.5654 214.162 6.5654C214.223 6.5654 214.374 6.67301 214.495 6.80537C214.618 6.93715 214.771 7.04476 214.837 7.04476C214.902 7.04476 215.144 7.20704 215.374 7.40442C215.604 7.60238 215.968 7.91428 216.182 8.09785C216.396 8.28142 216.572 8.47881 216.572 8.53693C216.572 8.59447 216.682 8.74639 216.817 8.87472C216.951 9.00247 217.127 9.23669 217.207 9.39494C217.287 9.55319 217.453 9.80467 217.575 9.95371C217.698 10.1028 217.798 10.3013 217.798 10.3945C217.798 10.4877 217.881 10.6397 217.982 10.7323C218.083 10.8255 218.194 11.0373 218.23 11.203C218.266 11.3688 218.411 11.7261 218.552 11.9966C218.726 12.3292 218.831 12.7107 218.877 13.1774C218.913 13.5567 219.008 14.0475 219.088 14.2685C219.292 14.8336 219.29 16.5916 219.085 17.403C218.998 17.746 218.891 18.3508 218.847 18.7473C218.799 19.1864 218.676 19.6548 218.532 19.946C218.402 20.209 218.268 20.5802 218.234 20.7706C218.2 20.9617 218.088 21.1947 217.985 21.2891C217.882 21.3841 217.798 21.5141 217.798 21.5791C217.798 21.6442 217.65 21.9175 217.468 22.1857C217.286 22.4538 217.138 22.7036 217.138 22.7399C217.138 22.8313 216.081 23.9575 215.534 24.4495C215.091 24.8472 214.337 25.3639 214.199 25.3639C214.11 25.3639 213.904 25.4785 213.741 25.6183C213.284 26.0085 212.865 26.0223 201.353 26.0292L190.805 26.0349L190.713 26.2812C190.612 26.55 190.578 48.4462 190.678 48.7098C190.728 48.8439 191.07 48.8617 193.545 48.8617H196.355L196.412 48.6459C196.443 48.5274 196.469 44.6482 196.47 40.0255C196.471 32.3276 196.484 31.6106 196.627 31.4897C196.756 31.3815 198.221 31.3499 204.964 31.3102C210.973 31.2751 213.181 31.2325 213.278 31.1508C213.427 31.0253 214.322 30.7842 214.983 30.6916C215.225 30.6576 215.445 30.5707 215.472 30.4988C215.499 30.4263 215.764 30.3123 216.061 30.245C216.357 30.1777 216.711 30.0286 216.846 29.9147C216.98 29.8007 217.25 29.6546 217.445 29.5901C217.639 29.5257 217.798 29.4319 217.798 29.3812C217.798 29.3306 217.979 29.2092 218.199 29.1113C218.42 29.0135 218.654 28.8426 218.719 28.731C218.784 28.6199 218.894 28.529 218.961 28.529C219.029 28.529 219.252 28.3776 219.456 28.1923C219.66 28.0076 219.891 27.8327 219.969 27.8033C220.046 27.7745 220.301 27.5127 220.535 27.2221C220.768 26.9315 221.047 26.5995 221.155 26.4844C221.262 26.3693 221.422 26.1673 221.51 26.0349C221.597 25.9032 221.816 25.601 221.996 25.3639C222.176 25.1263 222.39 24.7816 222.472 24.598C222.553 24.4139 222.698 24.1768 222.794 24.0703C222.889 23.9639 222.998 23.7694 223.036 23.6376C223.074 23.5058 223.202 23.2652 223.321 23.1035C223.441 22.9413 223.588 22.6179 223.65 22.3842C223.711 22.15 223.836 21.8876 223.927 21.8007C224.018 21.7138 224.12 21.4387 224.154 21.1901C224.187 20.941 224.318 20.4944 224.444 20.1975C224.642 19.7308 225.003 16.9778 225 15.9644C224.997 14.9332 224.634 12.194 224.439 11.7186C224.314 11.4137 224.184 10.9631 224.151 10.7168C224.117 10.4699 223.991 10.12 223.87 9.93817C223.748 9.75633 223.649 9.52442 223.649 9.42256C223.649 9.3207 223.522 9.04909 223.366 8.81948C223.21 8.58929 223.083 8.33667 223.083 8.25783C223.083 8.17899 222.976 7.98564 222.846 7.82796C222.715 7.67086 222.549 7.39637 222.476 7.2197C222.403 7.04246 222.255 6.81573 222.147 6.71617C222.039 6.61719 221.95 6.49347 221.95 6.44225C221.95 6.20114 220.44 4.59848 219.332 3.66393C218.955 3.34628 218.648 3.05222 218.648 3.01021C218.648 2.9682 218.552 2.90433 218.435 2.86865C218.318 2.83297 218.117 2.70694 217.987 2.58955C217.857 2.47215 217.616 2.32196 217.451 2.25578C217.286 2.19018 217.078 2.0538 216.988 1.95309C216.899 1.85238 216.736 1.76952 216.628 1.76952C216.519 1.76894 216.303 1.69816 216.147 1.61242C215.475 1.24125 215.348 1.19003 214.87 1.09796C214.594 1.04444 214.295 0.934526 214.207 0.853386C214.109 0.763614 213.718 0.669814 213.209 0.613419C212.749 0.562779 212.117 0.47128 211.806 0.410282C211.407 0.332595 208.22 0.289435 200.982 0.265266L190.725 0.231314L190.67 0.544939ZM147.825 0.95927C146.324 1.12443 143.618 1.68895 143.013 1.96345C142.497 2.19708 142.077 2.34555 141.93 2.34555C141.84 2.34555 141.577 2.44799 141.344 2.57401C141.111 2.70004 140.776 2.83527 140.599 2.8744C140.423 2.91411 140.15 3.04301 139.994 3.16156C139.838 3.27952 139.554 3.42742 139.363 3.48957C139.173 3.55114 138.972 3.6576 138.917 3.72493C138.861 3.79283 138.645 3.90562 138.437 3.97526C138.229 4.04546 138.058 4.13063 138.058 4.16516C138.058 4.19969 137.878 4.33089 137.657 4.45692C137.32 4.64854 136.627 5.15035 135.746 5.8409C134.625 6.71905 132.52 8.73834 131.961 9.46975C131.863 9.59807 131.592 9.95256 131.358 10.2576C130.906 10.848 130.883 10.8802 130.218 11.8982C129.506 12.9864 128.433 15.0022 128.433 15.252C128.433 15.3141 128.374 15.4154 128.302 15.4764C128.23 15.5368 128.12 15.7906 128.059 16.0392C127.997 16.2884 127.866 16.625 127.768 16.7873C127.669 16.9496 127.522 17.3748 127.44 17.7322C127.359 18.0901 127.234 18.4751 127.163 18.5885C127.093 18.7013 126.97 19.1824 126.891 19.6571C126.811 20.1319 126.677 20.6878 126.593 20.892C126.201 21.8393 126.192 28.9594 126.582 29.9072C126.66 30.0977 126.791 30.6461 126.872 31.126C126.954 31.606 127.101 32.178 127.199 32.3978C127.298 32.617 127.408 32.9692 127.445 33.1804C127.482 33.3916 127.61 33.7582 127.73 33.9958C127.85 34.2329 127.975 34.5351 128.008 34.6668C128.067 34.901 128.512 35.9156 128.765 36.3932C128.835 36.5256 129.02 36.8921 129.176 37.2086C129.333 37.5251 129.782 38.2778 130.174 38.8815C130.566 39.4846 130.887 40.0037 130.887 40.0347C130.887 40.0658 130.961 40.1596 131.052 40.2436C131.143 40.3271 131.365 40.597 131.547 40.8438C132.37 41.9591 133.932 43.5681 135.133 44.5354C135.263 44.6401 135.518 44.8507 135.699 45.0032C135.881 45.1557 136.093 45.3094 136.171 45.3445C136.329 45.4153 137.177 46.0022 137.401 46.1956C137.48 46.2641 137.693 46.3976 137.873 46.492C138.053 46.5863 138.497 46.8326 138.861 47.0392C139.224 47.2458 139.627 47.4616 139.757 47.5186C139.887 47.5756 140.286 47.7712 140.645 47.9542C141.003 48.1366 141.355 48.2862 141.427 48.2862C141.499 48.2862 141.718 48.3691 141.914 48.471C142.109 48.5722 142.523 48.7219 142.834 48.8042C143.144 48.8859 143.524 49.0159 143.677 49.0936C143.831 49.1713 144.232 49.2795 144.57 49.3347C144.907 49.39 145.481 49.5229 145.844 49.6311C147.245 50.046 152.956 50.1375 154.478 49.7686C154.816 49.6869 155.568 49.5206 156.15 49.3992C156.732 49.2778 157.263 49.1333 157.329 49.0787C157.396 49.0234 157.716 48.91 158.041 48.826C158.365 48.7426 158.79 48.5912 158.984 48.49C159.18 48.3893 159.53 48.2546 159.764 48.1913C159.997 48.128 160.251 48.0192 160.329 47.9496C160.407 47.88 160.662 47.7476 160.895 47.6561C161.129 47.564 161.386 47.4323 161.466 47.3626C161.546 47.293 161.795 47.171 162.017 47.091C162.24 47.011 162.549 46.8372 162.704 46.7049C162.859 46.5725 163.029 46.4638 163.082 46.4638C163.209 46.4638 164.387 45.6886 164.387 45.6052C164.387 45.5695 164.525 45.4711 164.693 45.3871C165.653 44.9071 168.381 42.2318 169.61 40.5653C169.843 40.2488 170.111 39.9047 170.207 39.8005C170.302 39.6964 170.43 39.4915 170.492 39.3447C170.555 39.1986 170.65 39.0789 170.704 39.0789C170.757 39.0789 170.86 38.9362 170.931 38.7618C171.003 38.5874 171.171 38.325 171.304 38.1789C171.438 38.0327 171.574 37.787 171.607 37.6328C171.641 37.4785 171.702 37.3525 171.743 37.3525C171.785 37.3525 171.914 37.1258 172.031 36.849C172.147 36.5722 172.322 36.2309 172.42 36.0911C172.517 35.9507 172.596 35.7757 172.596 35.7021C172.596 35.6284 172.7 35.3545 172.826 35.0932C172.952 34.8326 173.127 34.3601 173.215 34.0436C173.303 33.7271 173.411 33.4221 173.455 33.3657C173.499 33.3093 173.6 32.9853 173.678 32.6464C173.758 32.3069 173.887 31.8137 173.967 31.5501C174.656 29.2759 174.937 24.1319 174.488 22.0067C174.437 21.7696 174.348 21.2298 174.288 20.808C174.229 20.3862 174.083 19.6957 173.963 19.2733C173.843 18.8515 173.715 18.3336 173.679 18.1224C173.643 17.9117 173.557 17.6476 173.489 17.5365C173.42 17.4255 173.292 17.0802 173.205 16.7695C173.116 16.4587 172.944 16.0104 172.821 15.7733C172.697 15.5368 172.596 15.2876 172.596 15.2203C172.596 15.1536 172.469 14.8693 172.313 14.5885C172.158 14.3082 172.03 14.0136 172.03 13.9336C172.03 13.8536 171.947 13.7115 171.845 13.6182C171.743 13.5244 171.612 13.3 171.554 13.1187C171.495 12.938 171.345 12.6779 171.219 12.541C171.094 12.404 170.992 12.2331 170.992 12.1617C170.992 12.0898 170.887 11.9373 170.756 11.8228C170.627 11.7077 170.521 11.5742 170.521 11.5253C170.521 11.4096 169.765 10.406 169.076 9.60613C168.57 9.01916 166.868 7.28127 166.239 6.70927C165.89 6.39276 165.499 6.03655 165.369 5.91801C165.239 5.79946 165.095 5.70221 165.049 5.70221C165.004 5.70221 164.809 5.55087 164.616 5.36672C164.423 5.182 164.216 5.03065 164.154 5.03065C164.093 5.03065 163.951 4.92304 163.838 4.79126C163.725 4.65948 163.575 4.55129 163.504 4.55129C163.433 4.55129 163.256 4.45692 163.111 4.34125C162.818 4.10646 161.495 3.40037 161.349 3.40037C161.297 3.40037 161.128 3.30887 160.974 3.19723C160.819 3.08502 160.499 2.93425 160.262 2.86174C160.025 2.78923 159.782 2.6891 159.723 2.63904C159.485 2.43878 157.781 1.89094 156.035 1.45417C153.698 0.868923 150.435 0.672116 147.825 0.95927ZM142.04 12.7481C142.179 12.8897 142.337 13.2062 142.398 13.4669C142.459 13.7235 142.612 14.0752 142.737 14.2484C142.862 14.4216 142.966 14.6138 142.966 14.6754C142.966 14.7369 143.062 14.8906 143.181 15.0166C143.298 15.1421 143.518 15.4177 143.667 15.6289C143.939 16.0127 145.128 17.2034 145.245 17.2085C145.279 17.2103 145.485 17.3622 145.702 17.5469C145.919 17.7316 146.149 17.883 146.212 17.883C146.274 17.883 146.47 17.9906 146.646 18.1224C146.822 18.2547 147.046 18.3623 147.144 18.3623C147.242 18.3623 147.647 18.4993 148.045 18.6662L148.769 18.97L150.468 18.9637L152.166 18.9574L153.249 18.5718C153.844 18.36 154.347 18.1396 154.365 18.0827C154.384 18.0257 154.454 17.9785 154.519 17.9785C155.323 17.9785 157.68 15.5155 158.344 13.9814C158.862 12.7844 158.952 12.6192 159.144 12.5151C159.304 12.4276 159.438 12.4357 159.768 12.5525C159.999 12.6342 160.257 12.7015 160.343 12.7021C160.429 12.7033 160.729 12.827 161.011 12.9778C161.293 13.1285 161.69 13.2827 161.894 13.3213C162.097 13.3599 162.391 13.4703 162.546 13.5664C162.702 13.6631 163.078 13.8076 163.381 13.8876C163.684 13.9675 164.003 14.0953 164.089 14.1713C164.175 14.2472 164.415 14.3399 164.623 14.3767C164.83 14.4135 165.213 14.5459 165.472 14.6713C165.731 14.7962 166.135 14.9475 166.368 15.0074C166.602 15.0678 166.878 15.172 166.982 15.2393C167.086 15.3066 167.404 15.4327 167.69 15.519C169.238 15.9868 169.879 17.1205 169.33 18.4181C169.22 18.6777 169.055 19.1058 168.963 19.3694C168.871 19.6329 168.679 20.1727 168.537 20.5681C168.394 20.964 168.144 21.6758 167.98 22.1506C167.817 22.6253 167.628 23.1432 167.559 23.3015C167.49 23.4598 167.381 23.7406 167.316 23.9253C166.749 25.5285 166.342 25.9705 165.389 26.0194C164.722 26.0534 163.726 25.776 163.726 25.5556C163.726 25.5159 163.589 25.4554 163.421 25.4215C163.253 25.3875 162.957 25.2529 162.763 25.1217C162.568 24.9911 162.358 24.884 162.297 24.884C162.235 24.884 161.965 24.7586 161.698 24.6055C161.195 24.3166 161.054 24.2792 160.545 24.2976C160.036 24.316 160.034 24.9387 160.518 30.2554C160.621 31.389 160.747 32.9865 160.798 33.8036C160.911 35.6129 160.953 36.0853 161.147 37.7087L161.298 38.9759L161.045 39.5024C160.722 40.174 160.364 40.4767 159.738 40.609C158.824 40.8012 141.082 40.7005 140.782 40.5014C140.257 40.1515 139.958 39.7539 139.894 39.32C139.821 38.828 140.105 33.5867 140.239 32.9405C140.41 32.1135 140.509 31.057 140.6 29.0561C140.65 27.9483 140.757 26.7399 140.838 26.371C141.319 24.1578 140.815 23.8091 138.682 24.8794C138.045 25.1982 137.495 25.4595 137.459 25.4595C137.424 25.4595 137.22 25.5711 137.008 25.7075C135.752 26.5137 134.228 25.9106 133.913 24.4823C133.859 24.2366 133.708 23.8321 133.577 23.5823C133.447 23.3332 133.34 23.0345 133.34 22.9182C133.34 22.802 133.242 22.5172 133.122 22.2847C133.001 22.0528 132.845 21.6471 132.775 21.3835C132.705 21.1199 132.572 20.804 132.479 20.6814C132.387 20.5589 132.284 20.2671 132.249 20.0329C132.215 19.7987 132.108 19.5058 132.012 19.3826C131.81 19.1208 131.429 17.8686 131.426 17.4514C131.418 16.6354 132.203 15.8343 133.34 15.496C133.573 15.4263 133.807 15.3366 133.859 15.2963C133.911 15.256 134.303 15.1058 134.731 14.9625C135.159 14.8198 135.53 14.6673 135.556 14.6241C135.583 14.5804 135.827 14.4912 136.1 14.425C136.373 14.3589 136.686 14.2455 136.797 14.1724C136.907 14.0993 137.268 13.9583 137.599 13.8594C137.93 13.7604 138.368 13.5889 138.574 13.479C138.78 13.3691 139.05 13.2793 139.176 13.2793C139.302 13.2793 139.539 13.1941 139.704 13.0911C139.869 12.9875 140.245 12.8385 140.542 12.7602C140.837 12.682 141.17 12.5531 141.282 12.4736C141.513 12.3096 141.662 12.3637 142.04 12.7481ZM134.805 18.0383C134.637 18.2081 134.689 18.7312 134.885 18.867C135.166 19.0604 135.644 18.8969 135.734 18.5776C135.89 18.0188 135.211 17.6252 134.805 18.0383ZM146.74 25.6252C145.978 25.765 145.849 26.5977 146.557 26.8043C146.91 26.9073 154.055 26.9165 154.522 26.8147C155.109 26.6869 155.068 26.0131 154.454 25.7012C154.176 25.5608 147.454 25.494 146.74 25.6252Z" fill="#1d2025"></path>
      <rect y="5" width="6" height="7" rx="1" fill="#1d2025"></rect>
    </g>
  </symbol>

  <symbol  xmlns="http://www.w3.org/2000/svg" viewBox="0 0 488 488" id="search">
    <path d="M481.8 453L341.8 312.9C369.4 279.8 386 237.5 386 191.3C386 85.9 299.5 0.199951 193.1 0.199951C86.7 0.199951 0 85.9999 0 191.4C0 296.8 86.5 382.5 192.9 382.5C238.1 382.5 279.7 367 312.7 341.1L453.2 481.6C461.4 489.8 473.6 489.8 481.8 481.6C490 473.4 490 461.2 481.8 453ZM41 191.4C41 108.6 109.2 41.2999 192.9 41.2999C276.6 41.2999 344.8 108.6 344.8 191.4C344.8 274.2 276.6 341.5 192.9 341.5C109.2 341.5 41 274.1 41 191.4Z" ></path>
  </symbol>
  
  <symbol fill="none" xmlns="http://www.w3.org/2000/svg" viewBox="0 0 24 24" id="user">
    <path d="M19.7274 20.4471C19.2716 19.1713 18.2672 18.0439 16.8701 17.2399C15.4729 16.4358 13.7611 16 12 16C10.2389 16 8.52705 16.4358 7.1299 17.2399C5.73275 18.0439 4.72838 19.1713 4.27258 20.4471" stroke-width="2" stroke-linecap="round"></path>
    <path d="M12 12C14.2091 12 16 10.2091 16 8C16 5.79086 14.2091 4 12 4C9.79086 4 8 5.79086 8 8C8 10.2091 9.79086 12 12 12Z" stroke-width="2" stroke-linecap="round"></path>
  </symbol>

  <symbol id="cart" xmlns="http://www.w3.org/2000/svg" fill="none" stroke-linecap="round" stroke-linejoin="round" stroke-width="2" viewBox="0 0 32 32">
    <path d="M6 6 L30 6 27 19 9 19 M27 23 L10 23 5 2 2 2"></path>
    <circle cx="25" cy="27" r="2"></circle>
    <circle cx="12" cy="27" r="2"></circle>
  </symbol>

  <symbol xmlns="http://www.w3.org/2000/svg" viewBox="0 0 14 15" id="close">
    <path d="m11.596.782 2.122 2.122L9.12 7.499l4.597 4.597-2.122 2.122L7 9.62l-4.595 4.597-2.122-2.122L4.878 7.5.282 2.904 2.404.782l4.595 4.596L11.596.782Z" stroke="none" fill-rule="evenodd"></path>
  </symbol>

  <symbol xmlns="http://www.w3.org/2000/svg" viewBox="0 0 16 15" id="menu">
    <path d="M16 12v3H0v-3h16Zm0-6v3H0V6h16Zm0-6v3H0V0h16Z" stroke="none" fill-rule="evenodd"></path>
  </symbol>

  <symbol xmlns="http://www.w3.org/2000/svg" viewBox="0 0 20 20" id="icon-facebook">
    <path d="M18.896 0H1.104C.494 0 0 .494 0 1.104v17.793C0 19.506.494 20 1.104 20h9.58v-7.745H8.076V9.237h2.606V7.01c0-2.583 1.578-3.99 3.883-3.99 1.104 0 2.052.082 2.329.119v2.7h-1.598c-1.254 0-1.496.597-1.496 1.47v1.928h2.989l-.39 3.018h-2.6V20h5.098c.608 0 1.102-.494 1.102-1.104V1.104C20 .494 19.506 0 18.896 0z" stroke="none"></path>
  </symbol>

  <symbol xmlns="http://www.w3.org/2000/svg" viewBox="0 0 21 20" id="icon-instagram">
    <path d="M10.333 1.802c2.67 0 2.987.01 4.042.059 2.71.123 3.976 1.409 4.1 4.099.048 1.054.057 1.37.057 4.04 0 2.672-.01 2.988-.058 4.042-.124 2.687-1.386 3.975-4.099 4.099-1.055.048-1.37.058-4.042.058-2.67 0-2.986-.01-4.04-.058-2.717-.124-3.976-1.416-4.1-4.1-.048-1.054-.058-1.37-.058-4.041 0-2.67.01-2.986.058-4.04.124-2.69 1.387-3.977 4.1-4.1 1.054-.048 1.37-.058 4.04-.058zm0-1.802C7.618 0 7.278.012 6.211.06 2.579.227.56 2.242.394 5.877.345 6.944.334 7.284.334 10s.011 3.057.06 4.123c.166 3.632 2.181 5.65 5.816 5.817 1.068.048 1.408.06 4.123.06 2.716 0 3.057-.012 4.124-.06 3.628-.167 5.651-2.182 5.816-5.817.049-1.066.06-1.407.06-4.123s-.011-3.056-.06-4.122C20.11 2.249 18.093.228 14.458.06 13.39.01 13.049 0 10.333 0zm0 4.865a5.135 5.135 0 100 10.27 5.135 5.135 0 000-10.27zm0 8.468a3.333 3.333 0 110-6.666 3.333 3.333 0 010 6.666zm5.339-9.87a1.2 1.2 0 10-.001 2.4 1.2 1.2 0 000-2.4z" stroke="none"></path>
  </symbol>

  <symbol xmlns="http://www.w3.org/2000/svg" viewBox="0 0 21 18" id="icon-twitter">
    <path d="M20.667 2.797a8.192 8.192 0 01-2.357.646 4.11 4.11 0 001.804-2.27 8.22 8.22 0 01-2.606.996A4.096 4.096 0 0014.513.873c-2.649 0-4.595 2.472-3.997 5.038a11.648 11.648 0 01-8.457-4.287 4.109 4.109 0 001.27 5.478A4.086 4.086 0 011.47 6.59c-.045 1.901 1.317 3.68 3.29 4.075a4.113 4.113 0 01-1.853.07 4.106 4.106 0 003.834 2.85 8.25 8.25 0 01-6.075 1.7 11.616 11.616 0 006.29 1.843c7.618 0 11.922-6.434 11.662-12.205a8.354 8.354 0 002.048-2.124z" stroke="none"></path>
  </symbol>

  <symbol xmlns="http://www.w3.org/2000/svg" viewBox="0 0 16 16" id="icon-linkedin">
    <path d="M3.60001 16H0.199997V5.3H3.60001V16ZM1.9 3.8C0.800002 3.8 0 3 0 1.9C0 0.8 0.900002 0 1.9 0C3 0 3.8 0.8 3.8 1.9C3.8 3 3 3.8 1.9 3.8ZM16 16H12.6V10.2C12.6 8.5 11.9 8 10.9 8C9.89999 8 8.89999 8.8 8.89999 10.3V16H5.5V5.3H8.7V6.8C9 6.1 10.2 5 11.9 5C13.8 5 15.8 6.1 15.8 9.4V16H16Z" stroke="none"></path>
  </symbol>

  <symbol xmlns="http://www.w3.org/2000/svg" viewBox="0 0 16 16" id="icon-dribble">
    <path d="M8 0C3.584 0 0 3.584 0 8C0 12.416 3.584 16 8 16C12.4 16 16 12.416 16 8C16 3.584 12.4 0 8 0ZM13.28 3.68C14.24 4.848 14.8 6.32 14.832 7.936C14.608 7.888 12.352 7.44 10.08 7.712C10.032 7.6 9.984 7.472 9.936 7.36C9.792 7.024 9.648 6.688 9.488 6.368C11.984 5.36 13.136 3.872 13.28 3.68ZM8 1.184C9.728 1.184 11.328 1.84 12.528 2.896C12.4 3.072 11.376 4.448 8.944 5.36C7.824 3.296 6.576 1.616 6.4 1.36C6.912 1.248 7.44 1.184 8 1.184ZM5.088 1.824C5.264 2.064 6.48 3.76 7.616 5.776C4.416 6.624 1.6 6.608 1.296 6.608C1.76 4.48 3.184 2.72 5.088 1.824ZM1.168 8.016C1.168 7.952 1.168 7.872 1.168 7.808C1.456 7.824 4.784 7.856 8.192 6.832C8.384 7.216 8.576 7.6 8.752 8C8.672 8.032 8.576 8.048 8.48 8.08C4.96 9.216 3.088 12.32 2.928 12.576C1.824 11.36 1.168 9.76 1.168 8.016ZM8 14.832C6.416 14.832 4.96 14.288 3.808 13.392C3.936 13.136 5.312 10.464 9.168 9.12C9.184 9.104 9.2 9.104 9.216 9.104C10.176 11.6 10.576 13.68 10.672 14.288C9.856 14.64 8.944 14.832 8 14.832ZM11.808 13.664C11.744 13.248 11.376 11.248 10.48 8.8C12.624 8.464 14.496 9.024 14.736 9.088C14.432 10.992 13.344 12.64 11.808 13.664Z" stroke="none"></path>
  </symbol>

  <symbol fill="none" xmlns="http://www.w3.org/2000/svg" viewBox="0 0 21 15" id="eye">
    <path d="M1.75 7.5C1.75 7.5 5.02273 1 10.75 1C16.4773 1 19.75 7.5 19.75 7.5C19.75 7.5 16.4773 14 10.75 14C5.02273 14 1.75 7.5 1.75 7.5Z" stroke-width="2" stroke-linecap="round" stroke-linejoin="round"></path>
    <path d="M10.75 9.9375C12.1056 9.9375 13.2045 8.84619 13.2045 7.5C13.2045 6.15381 12.1056 5.0625 10.75 5.0625C9.39435 5.0625 8.29541 6.15381 8.29541 7.5C8.29541 8.84619 9.39435 9.9375 10.75 9.9375Z" stroke-width="2" stroke-linecap="round" stroke-linejoin="round"></path>
  </symbol>

  <symbol stroke="none" xmlns="http://www.w3.org/2000/svg" viewBox="0 0 18 15" id="eye-hidden">
    <path fill-rule="evenodd" clip-rule="evenodd" d="M3.06427 0.252733C2.88638 0.0887308 2.64813 -0.00201729 2.40082 3.40348e-05C2.15352 0.00208536 1.91695 0.0967721 1.74208 0.2637C1.5672 0.430629 1.468 0.656443 1.46586 0.892506C1.46371 1.12857 1.55878 1.35599 1.73059 1.5258L14.9354 14.1304C15.1133 14.2944 15.3515 14.3852 15.5988 14.3831C15.8461 14.3811 16.0827 14.2864 16.2576 14.1194C16.4325 13.9525 16.5317 13.7267 16.5338 13.4906C16.536 13.2546 16.4409 13.0271 16.2691 12.8573L14.8797 11.5312C16.3488 10.4131 17.4351 8.90213 17.9998 7.19157C16.7982 3.53894 13.2235 0.889266 8.99983 0.889266C7.5213 0.887352 6.06318 1.21866 4.74411 1.85622L3.06522 0.252733H3.06427ZM7.08325 4.08814L8.51126 5.45214C8.83109 5.37106 9.16761 5.3716 9.48716 5.45369C9.8067 5.53579 10.098 5.69656 10.332 5.91992C10.566 6.14327 10.7345 6.42138 10.8205 6.7264C10.9065 7.03142 10.907 7.35265 10.8221 7.65794L12.2501 9.02104C12.6755 8.33321 12.8492 7.52991 12.744 6.73751C12.6388 5.94512 12.2606 5.20859 11.6689 4.6438C11.0772 4.07901 10.3056 3.71801 9.47551 3.61758C8.64538 3.51715 7.80383 3.683 7.08325 4.08904V4.08814Z"></path>
    <path d="M11.3146 13.2211L8.76422 10.7858C7.84713 10.7309 6.98254 10.3585 6.3327 9.73834C5.68287 9.11821 5.29246 8.29301 5.23476 7.41763L1.77039 4.11072C0.973583 5.01646 0.37195 6.06345 0 7.19164C1.20164 10.8443 4.77731 13.4939 9.00002 13.4939C9.79891 13.4939 10.5742 13.3994 11.3146 13.2211Z"></path>
  </symbol>

   <symbol version="1.1" id="facebook" xmlns="http://www.w3.org/2000/svg" xmlns:xlink="http://www.w3.org/1999/xlink" x="0px" y="0px" xml:space="preserve" viewBox="0 0 408.788 408.788">
    <path d="M353.701,0H55.087C24.665,0,0.002,24.662,0.002,55.085v298.616c0,30.423,24.662,55.085,55.085,55.085
	h147.275l0.251-146.078h-37.951c-4.932,0-8.935-3.988-8.954-8.92l-0.182-47.087c-0.019-4.959,3.996-8.989,8.955-8.989h37.882
	v-45.498c0-52.8,32.247-81.55,79.348-81.55h38.65c4.945,0,8.955,4.009,8.955,8.955v39.704c0,4.944-4.007,8.952-8.95,8.955
	l-23.719,0.011c-25.615,0-30.575,12.172-30.575,30.035v39.389h56.285c5.363,0,9.524,4.683,8.892,10.009l-5.581,47.087
	c-0.534,4.506-4.355,7.901-8.892,7.901h-50.453l-0.251,146.078h87.631c30.422,0,55.084-24.662,55.084-55.084V55.085
	C408.786,24.662,384.124,0,353.701,0z"></path>
  </symbol>

  <symbol fill="none" xmlns="http://www.w3.org/2000/svg" viewBox="0 0 42 42" id="google">
    <path d="M39.4108 21.1315C39.4108 19.6402 39.2873 18.5519 39.02 17.4234H21.6434V24.1543H31.8431C31.6375 25.8271 30.5271 28.3462 28.0593 30.0389L28.0247 30.2643L33.5189 34.4354L33.8996 34.4727C37.3954 31.3086 39.4108 26.6533 39.4108 21.1315Z" fill="#4285F4"></path>
    <path d="M21.6422 38.8662C26.6392 38.8662 30.8342 37.2539 33.8984 34.4728L28.0581 30.0391C26.4953 31.1072 24.3977 31.8528 21.6422 31.8528C16.748 31.8528 12.5941 28.6889 11.1133 24.3157L10.8963 24.3338L5.18338 28.6667L5.10867 28.8702C8.15212 34.7952 14.4036 38.8662 21.6422 38.8662Z" fill="#34A853"></path>
    <path d="M11.1144 24.3158C10.7237 23.1873 10.4976 21.978 10.4976 20.7286C10.4976 19.479 10.7237 18.2699 11.0939 17.1414L11.0835 16.901L5.29899 12.4986L5.10973 12.5868C3.85537 15.0455 3.13562 17.8064 3.13562 20.7286C3.13562 23.6508 3.85537 26.4116 5.10973 28.8703L11.1144 24.3158Z" fill="#FBBC05"></path>
    <path d="M21.6423 9.60422C25.1176 9.60422 27.4619 11.0754 28.7986 12.3048L34.0219 7.30685C30.814 4.38469 26.6393 2.59108 21.6423 2.59108C14.4037 2.59108 8.15214 6.66192 5.10867 12.5868L11.0928 17.1414C12.5941 12.7683 16.7481 9.60422 21.6423 9.60422Z" fill="#EB4335"></path>
  </symbol>

  <symbol fill="none" xmlns="http://www.w3.org/2000/svg" viewBox="0 0 22 13" id="drop">
    <path d="M1.00021 1.3493L11.1732 11.1733L20.9972 1.00026" stroke-width="4"></path>
  </symbol>
  
  <symbol xmlns="http://www.w3.org/2000/svg" viewBox="0 0 24 24" id="drop-filled">
    <path d="M11.646 15.146L5.854 9.354a.5.5 0 01.353-.854h11.586a.5.5 0 01.353.854l-5.793 5.792a.5.5 0 01-.707 0z"></path>
  </symbol>

  <symbol xmlns="http://www.w3.org/2000/svg" xmlns:xlink="http://www.w3.org/1999/xlink" viewBox="0 0 12 4" stroke="none" id="minus">
    <defs>
      <path d="M11.357 3.332A.641.641 0 0 0 12 2.69V.643A.641.641 0 0 0 11.357 0H.643A.641.641 0 0 0 0 .643v2.046c0 .357.287.643.643.643h10.714Z" id="a"></path>
    </defs>
    <use fill-rule="nonzero" xlink:href="#a"></use>
  </symbol>

  <symbol xmlns="http://www.w3.org/2000/svg" xmlns:xlink="http://www.w3.org/1999/xlink" viewBox="0 0 12 12" stroke="none" id="plus">
    <defs>
      <path d="M12 7.023V4.977a.641.641 0 0 0-.643-.643h-3.69V.643A.641.641 0 0 0 7.022 0H4.977a.641.641 0 0 0-.643.643v3.69H.643A.641.641 0 0 0 0 4.978v2.046c0 .356.287.643.643.643h3.69v3.691c0 .356.288.643.644.643h2.046a.641.641 0 0 0 .643-.643v-3.69h3.691A.641.641 0 0 0 12 7.022Z" id="b"></path>
    </defs>
    <use fill-rule="nonzero" xlink:href="#b"></use>
  </symbol>
</svg>